<svg width="24" height="24" viewBox="0 0 24 24" fill="none" xmlns="http://www.w3.org/2000/svg">
<path d="M16.773 8.28771C17.0659 7.99481 17.0659 7.51994 16.773 7.22705C16.4801 6.93415 16.0052 6.93415 15.7123 7.22705L16.773 8.28771ZM7.22706 15.7123C6.93416 16.0052 6.93416 16.4801 7.22706 16.773C7.51995 17.0659 7.99482 17.0659 8.28772 16.773L7.22706 15.7123ZM15.7123 16.7729C16.0052 17.0658 16.4801 17.0658 16.773 16.7729C17.0659 16.48 17.0659 16.0052 16.773 15.7123L15.7123 16.7729ZM8.28772 7.22699C7.99482 6.9341 7.51995 6.9341 7.22706 7.22699C6.93416 7.51989 6.93416 7.99476 7.22706 8.28765L8.28772 7.22699ZM15.7123 7.22705L7.22706 15.7123L8.28772 16.773L16.773 8.28771L15.7123 7.22705ZM16.773 15.7123L8.28772 7.22699L7.22706 8.28765L15.7123 16.7729L16.773 15.7123Z" fill="#28303F"/>
</svg>
